<svg width="92" height="92" viewBox="0 0 92 92" fill="none" xmlns="http://www.w3.org/2000/svg">
<path d="M28.2708 64.3271L33.0625 58.3395L17.6372 46L33.0625 33.6605L28.2708 27.6728L9.10417 43.0061C8.65508 43.3653 8.29253 43.8208 8.04338 44.339C7.79424 44.8573 7.66487 45.4249 7.66487 46C7.66487 46.575 7.79424 47.1426 8.04338 47.6609C8.29253 48.1791 8.65508 48.6347 9.10417 48.9938L28.2708 64.3271ZM63.7292 27.6728L58.9375 33.6605L74.3629 46L58.9375 58.3395L63.7292 64.3271L82.8959 48.9938C83.3449 48.6347 83.7075 48.1791 83.9566 47.6609C84.2058 47.1426 84.3352 46.575 84.3352 46C84.3352 45.4249 84.2058 44.8573 83.9566 44.339C83.7075 43.8208 83.3449 43.3653 82.8959 43.0061L63.7292 27.6728ZM57.408 12.328L42.0747 81.328L34.5882 79.6643L49.9215 10.6643L57.408 12.328Z" fill="#229ED9"/>
</svg>
