<svg width="120" height="120" viewBox="0 0 120 120" fill="none" xmlns="http://www.w3.org/2000/svg">
<rect width="120" height="120" rx="60" fill="white"/>
<path fill-rule="evenodd" clip-rule="evenodd" d="M97.02 60.8864C97.02 58.121 96.7718 55.4619 96.3109 52.9092H59.58V67.9951H80.5691C79.665 72.8701 76.9173 77.0005 72.7868 79.766V89.5514H85.3909C92.7654 82.7619 97.02 72.7637 97.02 60.8864Z" fill="#4285F4"/>
<path fill-rule="evenodd" clip-rule="evenodd" d="M59.5801 99.0001C70.1101 99.0001 78.9383 95.5079 85.391 89.5515L72.7869 79.7661C69.2946 82.1061 64.8274 83.4888 59.5801 83.4888C49.4224 83.4888 40.8246 76.6283 37.7578 67.4102H24.7283V77.5147C31.1455 90.2606 44.3346 99.0001 59.5801 99.0001Z" fill="#34A853"/>
<path fill-rule="evenodd" clip-rule="evenodd" d="M37.7577 67.4099C36.9777 65.0699 36.5345 62.5703 36.5345 59.9999C36.5345 57.4294 36.9777 54.9299 37.7577 52.5899V42.4854H24.7282C22.0868 47.7504 20.58 53.7067 20.58 59.9999C20.58 66.2931 22.0868 72.2494 24.7282 77.5144L37.7577 67.4099Z" fill="#FBBC05"/>
<path fill-rule="evenodd" clip-rule="evenodd" d="M59.5801 36.5114C65.306 36.5114 70.4469 38.4791 74.4887 42.3436L85.6746 31.1577C78.9205 24.8645 70.0923 21 59.5801 21C44.3346 21 31.1455 29.7395 24.7283 42.4855L37.7578 52.59C40.8246 43.3718 49.4224 36.5114 59.5801 36.5114Z" fill="#EA4335"/>
</svg>
