<svg width="120" height="120" viewBox="0 0 120 120" fill="none" xmlns="http://www.w3.org/2000/svg">
<rect width="120" height="120" rx="60" fill="url(#paint0_linear_31_67)"/>
<path fill-rule="evenodd" clip-rule="evenodd" d="M27.1603 59.3667C44.6515 51.7461 56.3151 46.7221 62.151 44.2948C78.8136 37.3642 82.276 36.1603 84.5327 36.1205C85.029 36.1118 86.1388 36.2348 86.8577 36.8181C87.4647 37.3107 87.6317 37.976 87.7116 38.443C87.7916 38.91 87.8911 39.9738 87.812 40.805C86.909 50.2924 83.0019 73.3158 81.0142 83.9419C80.1732 88.4382 78.5171 89.9458 76.9138 90.0933C73.4295 90.4139 70.7837 87.7906 67.4089 85.5784C62.1282 82.1168 59.1448 79.962 54.0189 76.5841C48.0951 72.6803 51.9353 70.5348 55.3113 67.0283C56.1948 66.1107 71.5467 52.1469 71.8439 50.8801C71.881 50.7217 71.9155 50.1312 71.5647 49.8194C71.2139 49.5075 70.6961 49.6142 70.3224 49.699C69.7928 49.8192 61.3567 55.3951 45.0141 66.4268C42.6195 68.0711 40.4506 68.8723 38.5073 68.8303C36.365 68.784 32.244 67.619 29.1805 66.6232C25.423 65.4018 22.4366 64.756 22.6967 62.6816C22.8321 61.6012 24.32 60.4962 27.1603 59.3667Z" fill="white"/>
<defs>
<linearGradient id="paint0_linear_31_67" x1="60" y1="0" x2="60" y2="119.11" gradientUnits="userSpaceOnUse">
<stop stop-color="#2AABEE"/>
<stop offset="1" stop-color="#229ED9"/>
</linearGradient>
</defs>
</svg>
