<svg width="120" height="120" viewBox="0 0 120 120" fill="none" xmlns="http://www.w3.org/2000/svg">
<rect width="120" height="120" rx="60" fill="#1D9BF0"/>
<path d="M49.02 91.6501C75.63 91.6501 90.18 69.6001 90.18 50.4901C90.18 49.8601 90.18 49.2301 90.15 48.6301C92.97 46.5901 95.43 44.0401 97.38 41.1301C94.8 42.2701 92.01 43.0501 89.07 43.4101C92.07 41.6101 94.35 38.7901 95.43 35.4001C92.64 37.0501 89.55 38.2501 86.25 38.9101C83.61 36.0901 79.86 34.3501 75.69 34.3501C67.71 34.3501 61.23 40.8301 61.23 48.8101C61.23 49.9501 61.35 51.0601 61.62 52.1101C49.59 51.5101 38.94 45.7501 31.8 36.9901C30.57 39.1201 29.85 41.6101 29.85 44.2501C29.85 49.2601 32.4 53.7001 36.3 56.2801C33.93 56.2201 31.71 55.5601 29.76 54.4801C29.76 54.5401 29.76 54.6001 29.76 54.6601C29.76 61.6801 34.74 67.5001 41.37 68.8501C40.17 69.1801 38.88 69.3601 37.56 69.3601C36.63 69.3601 35.73 69.2701 34.83 69.0901C36.66 74.8501 42 79.0201 48.33 79.1401C43.38 83.0101 37.14 85.3201 30.36 85.3201C29.19 85.3201 28.05 85.2601 26.91 85.1101C33.24 89.2501 40.86 91.6501 49.02 91.6501Z" fill="white"/>
</svg>
